<?xml version="1.0" encoding="utf-8"?>
<!-- Generator: Adobe Illustrator 16.0.0, SVG Export Plug-In . SVG Version: 6.00 Build 0)  -->
<!DOCTYPE svg PUBLIC "-//W3C//DTD SVG 1.1//EN" "http://www.w3.org/Graphics/SVG/1.1/DTD/svg11.dtd">
<svg version="1.1" id="Capa_1" xmlns="http://www.w3.org/2000/svg" xmlns:xlink="http://www.w3.org/1999/xlink" x="0px" y="0px"
	 width="960px" height="560px" viewBox="0 0 960 560" enable-background="new 0 0 960 560" xml:space="preserve">
<g>
	<g>
		<path fill="#FFFFFF" d="M760,106.38c-20.611,9.133-42.727,15.327-65.963,18.092c23.726-14.208,41.888-36.743,50.495-63.513
			c-22.255,13.157-46.821,22.711-72.997,27.89c-20.96-22.36-50.774-36.288-83.844-36.288c-63.443,0-114.884,51.44-114.884,114.848
			c0,8.993,1.015,17.776,2.975,26.176c-95.461-4.795-180.11-50.531-236.764-120.029c-9.904,16.938-15.538,36.673-15.538,57.74
			c0,39.858,20.296,75.026,51.091,95.602c-18.827-0.629-36.533-5.809-52.035-14.417v1.435c0,55.64,39.613,102.076,92.138,112.644
			c-9.624,2.59-19.771,4.024-30.27,4.024c-7.418,0-14.592-0.734-21.626-2.135c14.627,45.667,57.04,78.875,107.291,79.785
			C330.771,439.028,281.22,457.33,227.4,457.33c-9.272,0-18.407-0.561-27.399-1.575c50.846,32.649,111.209,51.686,176.087,51.686
			c211.325,0,326.839-175.037,326.839-326.838l-0.386-14.872C725.111,149.632,744.638,129.406,760,106.38z"/>
	</g>
</g>
</svg>
